<svg width="512" height="512" xmlns="http://www.w3.org/2000/svg" xmlns:xlink="http://www.w3.org/1999/xlink" overflow="hidden"><defs><clipPath id="clip0"><rect x="0" y="0" width="512" height="512"/></clipPath></defs><g clip-path="url(#clip0)"><rect x="0" y="0" width="512" height="512" fill="#FFFFFF" fill-opacity="0"/><path d="M256 49.471C323.266 49.471 331.233 49.728 357.8 50.94 382.362 52.061 395.7 56.164 404.578 59.614 415.52 63.6525 425.418 70.092 433.544 78.459 441.911 86.585 448.35 96.4829 452.389 107.425 455.839 116.302 459.943 129.641 461.063 154.203 462.275 180.768 462.532 188.735 462.532 256.003 462.532 323.271 462.275 331.236 461.063 357.803 459.942 382.365 455.838 395.703 452.389 404.581 443.914 426.551 426.548 443.917 404.578 452.392 395.701 455.842 382.362 459.946 357.8 461.066 331.24 462.278 323.273 462.535 256 462.535 188.727 462.535 180.763 462.278 154.2 461.066 129.638 459.945 116.3 455.841 107.422 452.392 96.4799 448.354 86.582 441.914 78.456 433.547 70.089 425.421 63.6495 415.523 59.611 404.581 56.161 395.704 52.057 382.365 50.937 357.803 49.725 331.239 49.468 323.271 49.468 256.003 49.468 188.735 49.725 180.77 50.937 154.203 52.058 129.641 56.161 116.303 59.611 107.425 63.65 96.4824 70.0901 86.5841 78.458 78.458 86.584 70.091 96.4819 63.6516 107.424 59.613 116.301 56.163 129.64 52.059 154.202 50.939 180.767 49.727 188.734 49.47 256.002 49.47M256.002 4.079C187.584 4.079 179.002 4.369 152.136 5.595 125.321 6.819 107.009 11.077 90.985 17.305 74.1756 23.6306 58.9483 33.5468 46.365 46.362 33.5469 58.9445 23.628 74.1719 17.3 90.982 11.077 107.007 6.819 125.319 5.6 152.134 4.369 179 4.079 187.582 4.079 256 4.079 324.418 4.369 333 5.6 359.866 6.824 386.681 11.082 404.993 17.31 421.017 23.6357 437.826 33.5518 453.054 46.367 465.637 58.9503 478.452 74.1776 488.368 90.987 494.694 107.012 500.922 125.324 505.18 152.138 506.404 179.008 507.63 187.587 507.92 256.004 507.92 324.421 507.92 333.004 507.63 359.87 506.404 386.685 505.18 404.997 500.922 421.021 494.694 454.86 481.606 481.61 454.856 494.698 421.017 500.926 404.992 505.184 386.68 506.408 359.866 507.634 332.996 507.924 324.417 507.924 256 507.924 187.583 507.634 179 506.408 152.134 505.184 125.319 500.926 107.007 494.698 90.983 488.372 74.1736 478.456 58.9463 465.641 46.363 453.057 33.5452 437.829 23.627 421.018 17.3 404.993 11.077 386.681 6.819 359.866 5.6 333 4.369 324.418 4.079 256 4.079L256 4.079Z" fill="#FFFFFF"/><path d="M256 126.635C184.554 126.635 126.635 184.554 126.635 256 126.635 327.446 184.554 385.365 256 385.365 327.446 385.365 385.365 327.446 385.365 256 385.365 184.554 327.446 126.635 256 126.635ZM256 339.973C209.623 339.972 172.027 302.376 172.028 255.999 172.029 209.622 209.625 172.026 256.002 172.027 302.379 172.028 339.974 209.623 339.974 256 339.973 302.377 302.377 339.973 256 339.973Z" fill="#FFFFFF"/><path d="M420.706 121.524C420.706 138.22 407.172 151.754 390.476 151.754 373.78 151.754 360.246 138.22 360.246 121.524 360.246 104.828 373.78 91.294 390.476 91.294 407.172 91.294 420.706 104.828 420.706 121.524Z" fill="#FFFFFF"/></g></svg>