<svg width="512" height="512" xmlns="http://www.w3.org/2000/svg" xmlns:xlink="http://www.w3.org/1999/xlink" overflow="hidden"><defs><clipPath id="clip0"><rect x="0" y="0" width="512" height="512"/></clipPath></defs><g clip-path="url(#clip0)"><rect x="0" y="0" width="512" height="512" fill="#FFFFFF" fill-opacity="0"/><path d="M75.9032 191.934 75.9032 436.26 151.846 436.26 151.846 191.934ZM345.22 185.858C315.866 184.768 288.192 199.967 273.363 225.322L272.342 225.322 272.342 191.934 199.514 191.934 199.514 436.251 275.376 436.251 275.376 315.388C275.376 283.516 281.422 252.65 320.936 252.65 359.886 252.65 360.393 289.12 360.393 317.452L360.393 436.26 436.257 436.26 436.289 302.232C436.289 236.434 422.111 185.858 345.22 185.858ZM113.905 70.487C89.7541 70.487 69.8803 90.3611 69.8803 114.513 69.8803 138.665 89.7541 158.536 113.905 158.536 113.908 158.536 113.91 158.536 113.914 158.536 138.061 158.534 157.931 138.66 157.931 114.513 157.931 114.508 157.931 114.506 157.931 114.504 157.926 90.3562 138.055 70.487 113.905 70.487ZM474.076 0.00320042C494.595-0.266866 511.725 16.3844 512 36.9087L512 475.053C511.725 495.586 494.618 512.256 474.076 511.997L37.7799 511.997C17.2881 512.217 0.240274 495.545 0 475.053L0 36.9387C0.249629 16.4578 17.2995-0.195964 37.7799 0.0354508L474.076 0.0354508Z" fill="#FFFFFF" fill-rule="evenodd"/></g></svg>