<svg width="512" height="512" xmlns="http://www.w3.org/2000/svg" xmlns:xlink="http://www.w3.org/1999/xlink" overflow="hidden"><defs><clipPath id="clip0"><rect x="0" y="0" width="512" height="512"/></clipPath><clipPath id="clip1"><rect x="0" y="45" width="512" height="422"/></clipPath><clipPath id="clip2"><rect x="0" y="45" width="512" height="422"/></clipPath><clipPath id="clip3"><rect x="0" y="45" width="512" height="422"/></clipPath></defs><g clip-path="url(#clip0)"><rect x="0" y="0" width="512" height="512" fill="#FFFFFF" fill-opacity="0"/><g clip-path="url(#clip1)"><g clip-path="url(#clip2)"><g clip-path="url(#clip3)"><path d="M458.219 105.889C458.529 110.369 458.529 114.849 458.529 119.37 458.529 257.135 353.652 416.021 161.879 416.021L161.879 415.938C105.228 416.021 49.7548 399.794 2.06452 369.197 10.3019 370.188 18.5806 370.684 26.88 370.704 73.8271 370.746 119.432 354.994 156.366 325.987 111.752 325.141 72.6297 296.052 58.9626 253.585 74.591 256.599 90.6942 255.979 106.034 251.788 57.3935 241.961 22.4 199.226 22.4 149.595 22.4 149.141 22.4 148.707 22.4 148.274 36.8929 156.346 53.12 160.826 69.7187 161.321 23.9071 130.705 9.78581 69.76 37.4503 22.111 90.3845 87.2464 168.485 126.844 252.325 131.035 243.923 94.8232 255.401 56.8774 282.488 31.4219 324.48-8.05161 390.524-6.02839 429.997 35.9432 453.347 31.3394 475.726 22.7716 496.206 10.6323 488.423 34.7665 472.134 55.2671 450.374 68.2942 471.04 65.8581 491.231 60.3252 510.245 51.8813 496.248 72.8568 478.617 91.1277 458.219 105.889Z" fill="#FFFFFF" transform="matrix(1 0 0 1.00199 0 45)"/></g></g></g></g></svg>