<svg width="525" height="178" xmlns="http://www.w3.org/2000/svg" xmlns:xlink="http://www.w3.org/1999/xlink" overflow="hidden"><defs><clipPath id="clip0"><rect x="420" y="416" width="525" height="178"/></clipPath><clipPath id="clip1"><rect x="421" y="416" width="523" height="177"/></clipPath><clipPath id="clip2"><rect x="601" y="416" width="178" height="177"/></clipPath><clipPath id="clip3"><rect x="601" y="416" width="178" height="177"/></clipPath><clipPath id="clip4"><rect x="601" y="416" width="178" height="177"/></clipPath><linearGradient x1="28.0532" y1="-16.1965" x2="148.946" y2="193.195" gradientUnits="userSpaceOnUse" spreadMethod="reflect" id="fill5"><stop offset="0" stop-color="#336CBA"/><stop offset="0.00806452" stop-color="#346BB9"/><stop offset="0.016129" stop-color="#366BB9"/><stop offset="0.0241935" stop-color="#386BB9"/><stop offset="0.0322581" stop-color="#3A6BB9"/><stop offset="0.0403226" stop-color="#3C6BB9"/><stop offset="0.0483871" stop-color="#3E6BB9"/><stop offset="0.0564516" stop-color="#3F6BB9"/><stop offset="0.0645161" stop-color="#416BB9"/><stop offset="0.0725806" stop-color="#436BB9"/><stop offset="0.0806452" stop-color="#456BB8"/><stop offset="0.0887097" stop-color="#466BB8"/><stop offset="0.0967742" stop-color="#486BB8"/><stop offset="0.104839" stop-color="#4A6AB8"/><stop offset="0.112903" stop-color="#4C6AB7"/><stop offset="0.120968" stop-color="#4D6AB7"/><stop offset="0.129032" stop-color="#4F6AB7"/><stop offset="0.137097" stop-color="#516AB7"/><stop offset="0.145161" stop-color="#526AB6"/><stop offset="0.153226" stop-color="#5469B6"/><stop offset="0.16129" stop-color="#5669B6"/><stop offset="0.169355" stop-color="#5769B5"/><stop offset="0.177419" stop-color="#5969B5"/><stop offset="0.185484" stop-color="#5A69B4"/><stop offset="0.193548" stop-color="#5C68B4"/><stop offset="0.201613" stop-color="#5E68B3"/><stop offset="0.209677" stop-color="#5F68B3"/><stop offset="0.217742" stop-color="#6167B3"/><stop offset="0.225806" stop-color="#6267B2"/><stop offset="0.233871" stop-color="#6467B2"/><stop offset="0.241935" stop-color="#6567B1"/><stop offset="0.25" stop-color="#6766B1"/><stop offset="0.258065" stop-color="#6866B0"/><stop offset="0.266129" stop-color="#6A66AF"/><stop offset="0.274194" stop-color="#6B65AF"/><stop offset="0.282258" stop-color="#6C65AE"/><stop offset="0.290323" stop-color="#6E65AE"/><stop offset="0.298387" stop-color="#6F64AD"/><stop offset="0.306452" stop-color="#7164AC"/><stop offset="0.314516" stop-color="#7263AC"/><stop offset="0.322581" stop-color="#7363AB"/><stop offset="0.330645" stop-color="#7563AA"/><stop offset="0.33871" stop-color="#7662AA"/><stop offset="0.346774" stop-color="#7762A9"/><stop offset="0.354839" stop-color="#7961A8"/><stop offset="0.362903" stop-color="#7A61A7"/><stop offset="0.370968" stop-color="#7B61A7"/><stop offset="0.379032" stop-color="#7C60A6"/><stop offset="0.387097" stop-color="#7E60A5"/><stop offset="0.395161" stop-color="#7F5FA4"/><stop offset="0.403226" stop-color="#805FA3"/><stop offset="0.41129" stop-color="#815EA3"/><stop offset="0.419355" stop-color="#825EA2"/><stop offset="0.427419" stop-color="#845DA1"/><stop offset="0.435484" stop-color="#855DA0"/><stop offset="0.443548" stop-color="#865C9F"/><stop offset="0.451613" stop-color="#875C9E"/><stop offset="0.459677" stop-color="#885B9D"/><stop offset="0.467742" stop-color="#895B9C"/><stop offset="0.475806" stop-color="#8A5A9B"/><stop offset="0.483871" stop-color="#8B5A9A"/><stop offset="0.491935" stop-color="#8C599A"/><stop offset="0.5" stop-color="#8D5899"/><stop offset="0.508065" stop-color="#8E5898"/><stop offset="0.516129" stop-color="#8F5796"/><stop offset="0.524194" stop-color="#905795"/><stop offset="0.532258" stop-color="#915694"/><stop offset="0.540323" stop-color="#925593"/><stop offset="0.548387" stop-color="#935592"/><stop offset="0.556452" stop-color="#945491"/><stop offset="0.564516" stop-color="#955490"/><stop offset="0.572581" stop-color="#96538F"/><stop offset="0.580645" stop-color="#97528E"/><stop offset="0.58871" stop-color="#98528D"/><stop offset="0.596774" stop-color="#99518C"/><stop offset="0.604839" stop-color="#9A508A"/><stop offset="0.612903" stop-color="#9A5089"/><stop offset="0.620968" stop-color="#9B4F88"/><stop offset="0.629032" stop-color="#9C4E87"/><stop offset="0.637097" stop-color="#9D4D86"/><stop offset="0.645161" stop-color="#9E4D84"/><stop offset="0.653226" stop-color="#9E4C83"/><stop offset="0.66129" stop-color="#9F4B82"/><stop offset="0.669355" stop-color="#A04B80"/><stop offset="0.677419" stop-color="#A14A7F"/><stop offset="0.685484" stop-color="#A1497E"/><stop offset="0.693548" stop-color="#A2487D"/><stop offset="0.701613" stop-color="#A3477B"/><stop offset="0.709677" stop-color="#A3477A"/><stop offset="0.717742" stop-color="#A44679"/><stop offset="0.725806" stop-color="#A44577"/><stop offset="0.733871" stop-color="#A54476"/><stop offset="0.741935" stop-color="#A64474"/><stop offset="0.75" stop-color="#A64373"/><stop offset="0.758065" stop-color="#A74272"/><stop offset="0.766129" stop-color="#A74170"/><stop offset="0.774194" stop-color="#A8406F"/><stop offset="0.782258" stop-color="#A83F6D"/><stop offset="0.790323" stop-color="#A93E6C"/><stop offset="0.798387" stop-color="#A93E6A"/><stop offset="0.806452" stop-color="#AA3D69"/><stop offset="0.814516" stop-color="#AA3C67"/><stop offset="0.822581" stop-color="#AB3B66"/><stop offset="0.830645" stop-color="#AB3A64"/><stop offset="0.83871" stop-color="#AB3962"/><stop offset="0.846774" stop-color="#AC3861"/><stop offset="0.854839" stop-color="#AC375F"/><stop offset="0.862903" stop-color="#AC365E"/><stop offset="0.870968" stop-color="#AD355C"/><stop offset="0.879032" stop-color="#AD355A"/><stop offset="0.887097" stop-color="#AD3459"/><stop offset="0.895161" stop-color="#AE3357"/><stop offset="0.903226" stop-color="#AE3256"/><stop offset="0.91129" stop-color="#AE3154"/><stop offset="0.919355" stop-color="#AE3052"/><stop offset="0.927419" stop-color="#AF2F50"/><stop offset="0.935484" stop-color="#AF2E4F"/><stop offset="0.943548" stop-color="#AF2D4D"/><stop offset="0.951613" stop-color="#AF2C4B"/><stop offset="0.959677" stop-color="#AF2B49"/><stop offset="0.967742" stop-color="#AF2A48"/><stop offset="0.975806" stop-color="#AF2946"/><stop offset="0.983871" stop-color="#AF2844"/><stop offset="0.991935" stop-color="#AF2742"/><stop offset="1" stop-color="#B02641"/></linearGradient></defs><g clip-path="url(#clip0)" transform="translate(-420 -416)"><g clip-path="url(#clip1)"><g clip-path="url(#clip2)"><g clip-path="url(#clip3)"><g clip-path="url(#clip4)"><path d="M143.084 107.333 144.08 109.74 142.083 109.74ZM122.752 107.333 123.749 109.74 121.751 109.74ZM92.2056 107.09 93.3915 107.09C93.8407 107.09 94.1757 107.186 94.3977 107.377 94.6192 107.569 94.7299 107.838 94.7299 108.186 94.7299 108.527 94.6192 108.794 94.3977 108.985 94.1757 109.177 93.8407 109.273 93.3915 109.273L92.2056 109.273ZM71.8734 107.09 73.0594 107.09C73.5085 107.09 73.8441 107.186 74.0655 107.377 74.287 107.569 74.3978 107.838 74.3978 108.186 74.3978 108.527 74.287 108.794 74.0655 108.985 73.8441 109.177 73.5085 109.273 73.0594 109.273L71.8734 109.273ZM86.2212 107.027C86.5089 107.027 86.7721 107.076 87.012 107.175 87.2515 107.274 87.4597 107.413 87.6362 107.593 87.8128 107.772 87.9505 107.985 88.0494 108.231 88.1483 108.476 88.2008 108.749 88.2065 109.048 88.2008 109.347 88.1483 109.62 88.0494 109.866 87.9505 110.111 87.8128 110.324 87.6362 110.504 87.4597 110.683 87.2515 110.821 87.012 110.917 86.7721 111.012 86.5089 111.064 86.2212 111.07 85.9396 111.07 85.6807 111.02 85.4441 110.921 85.2075 110.823 85.0011 110.683 84.8241 110.504 84.6476 110.324 84.5099 110.11 84.411 109.861 84.3121 109.613 84.2595 109.342 84.2539 109.048 84.2595 108.743 84.3121 108.469 84.411 108.226 84.5099 107.984 84.6476 107.772 84.8241 107.593 85.0011 107.413 85.2089 107.275 85.4488 107.179 85.6883 107.084 85.9458 107.033 86.2212 107.027ZM40.8288 107.027C41.1163 107.027 41.3799 107.076 41.6195 107.175 41.859 107.274 42.0672 107.413 42.2438 107.593 42.4205 107.772 42.5583 107.985 42.6571 108.231 42.7559 108.476 42.8083 108.749 42.8143 109.048 42.8083 109.347 42.7559 109.62 42.6571 109.866 42.5583 110.111 42.4205 110.324 42.2438 110.504 42.0672 110.683 41.859 110.821 41.6195 110.917 41.3799 111.012 41.1163 111.064 40.8288 111.07 40.5474 111.07 40.2884 111.02 40.0517 110.921 39.8152 110.823 39.6086 110.683 39.4319 110.504 39.2552 110.324 39.1174 110.11 39.0186 109.861 38.9198 109.613 38.8674 109.342 38.8614 109.048 38.8674 108.743 38.9198 108.469 39.0186 108.226 39.1174 107.984 39.2552 107.772 39.4319 107.593 39.6086 107.413 39.8167 107.275 40.0562 107.179 40.2958 107.084 40.5533 107.033 40.8288 107.027ZM161.212 105.904 161.203 112.192 166.063 112.192 166.072 111.025 162.631 111.025 162.638 109.569 165.569 109.56 165.569 108.437 162.643 108.446 162.649 107.072 165.937 107.072 165.955 105.904ZM147.491 105.904 147.491 112.192 148.928 112.192 148.928 108.375 152.063 112.192 153.258 112.192 153.258 105.904 151.821 105.904 151.829 109.728 148.694 105.904ZM142.374 105.904 139.572 112.192 141.063 112.192 141.623 110.845 144.539 110.845 145.097 112.192 146.624 112.192 143.812 105.904ZM137.561 105.904 137.561 112.192 139.017 112.192 139.017 105.904ZM132.36 105.904 132.369 112.192 136.969 112.192 136.96 111.007 133.815 111.007 133.806 105.904ZM127.159 105.904 127.168 112.192 131.767 112.192 131.758 111.007 128.614 111.007 128.605 105.904ZM122.043 105.904 119.24 112.192 120.731 112.192 121.291 110.845 124.206 110.845 124.765 112.192 126.292 112.192 123.48 105.904ZM102.58 105.904 102.571 112.192 107.431 112.192 107.44 111.025 104 111.025 104.006 109.569 106.937 109.56 106.937 108.437 104.011 108.446 104.018 107.072 107.305 107.072 107.323 105.904ZM97.3698 105.904 97.3788 112.192 101.978 112.192 101.969 111.007 98.825 111.007 98.816 105.904ZM90.7503 105.904 90.7503 112.192 92.2056 112.192 92.2056 110.459 93.472 110.459C94.0352 110.459 94.5203 110.367 94.9277 110.185 95.3347 110.002 95.6495 109.74 95.871 109.399 96.0924 109.057 96.2032 108.653 96.2032 108.186 96.2032 107.712 96.0924 107.305 95.871 106.964 95.6495 106.622 95.3347 106.36 94.9277 106.178 94.5203 105.995 94.0352 105.904 93.472 105.904ZM77.0466 105.904 77.0376 112.192 81.898 112.192 81.907 111.025 78.4664 111.025 78.473 109.569 81.4039 109.56 81.4039 108.437 78.4782 108.446 78.4844 107.072 81.7721 107.072 81.7901 105.904ZM70.4181 105.904 70.4181 112.192 71.8734 112.192 71.8734 110.459 73.1403 110.459C73.703 110.459 74.1886 110.367 74.5956 110.185 75.0031 110.002 75.3173 109.74 75.5388 109.399 75.7603 109.057 75.8715 108.653 75.8715 108.186 75.8715 107.712 75.7603 107.305 75.5388 106.964 75.3173 106.622 75.0031 106.36 74.5956 106.178 74.1886 105.995 73.703 105.904 73.1403 105.904ZM52.4504 105.904 52.4504 112.192 53.8877 112.192 53.8877 108.375 57.023 112.192 58.218 112.192 58.218 105.904 56.7807 105.904 56.7883 109.728 53.6539 105.904ZM45.3038 105.904 45.3038 109.426C45.3038 110.348 45.5554 111.057 46.0584 111.555 46.5615 112.052 47.2593 112.3 48.1518 112.3 49.0443 112.3 49.7419 112.052 50.245 111.555 50.7481 111.057 50.9998 110.348 50.9998 109.426L50.9998 105.904 49.5621 105.904 49.5621 109.372C49.5621 109.97 49.4395 110.402 49.1939 110.665 48.9482 110.929 48.6037 111.061 48.1607 111.061 47.7173 111.061 47.3732 110.929 47.1275 110.665 46.882 110.402 46.7592 109.97 46.7592 109.372L46.7592 105.904ZM30.774 105.904 33.2086 109.951 33.2086 112.192 34.664 112.192 34.664 109.966 37.1076 105.904 35.6791 105.904 33.9956 108.695 32.3192 105.904ZM15.0961 105.904 15.0961 112.192 16.5335 112.192 16.5335 108.375 19.6689 112.192 20.8638 112.192 20.8638 105.904 19.4263 105.904 19.4339 109.728 16.2999 105.904ZM86.2212 105.805C85.7361 105.799 85.2841 105.877 84.8648 106.038 84.4455 106.2 84.0816 106.429 83.773 106.726 83.4649 107.022 83.225 107.366 83.0546 107.759 82.8838 108.151 82.7986 108.581 82.7986 109.048 82.8043 109.509 82.8899 109.939 83.0546 110.338 83.2193 110.736 83.4559 111.082 83.764 111.375 84.0726 111.668 84.438 111.895 84.8601 112.053 85.2822 112.212 85.7361 112.291 86.2212 112.291 86.7243 112.297 87.1843 112.219 87.6003 112.058 88.0167 111.896 88.3788 111.67 88.6874 111.38 88.9959 111.089 89.2354 110.745 89.4062 110.347 89.5766 109.948 89.659 109.515 89.6533 109.048 89.659 108.575 89.5766 108.142 89.4062 107.75 89.2354 107.357 88.9959 107.015 88.6874 106.721 88.3788 106.428 88.0167 106.2 87.6003 106.038 87.1843 105.877 86.7243 105.799 86.2212 105.805ZM40.8288 105.805C40.3437 105.799 39.8915 105.877 39.4723 106.038 39.0531 106.2 38.6892 106.429 38.3808 106.726 38.0723 107.022 37.8327 107.366 37.662 107.759 37.4914 108.151 37.406 108.581 37.406 109.048 37.4119 109.509 37.4973 109.939 37.662 110.338 37.8267 110.736 38.0633 111.082 38.3718 111.375 38.6802 111.668 39.0456 111.895 39.4678 112.053 39.89 112.212 40.3437 112.291 40.8288 112.291 41.332 112.297 41.7916 112.219 42.2079 112.058 42.6241 111.896 42.9865 111.67 43.2949 111.38 43.6034 111.089 43.843 110.745 44.0137 110.347 44.1843 109.948 44.2667 109.515 44.2607 109.048 44.2667 108.575 44.1843 108.142 44.0137 107.75 43.843 107.357 43.6034 107.015 43.2949 106.721 42.9865 106.428 42.6241 106.2 42.2079 106.038 41.7916 105.877 41.332 105.799 40.8288 105.805ZM157.602 105.796C157.111 105.796 156.658 105.875 156.245 106.034 155.832 106.193 155.471 106.419 155.163 106.712 154.854 107.006 154.615 107.35 154.444 107.745 154.273 108.141 154.188 108.575 154.188 109.048 154.188 109.521 154.273 109.956 154.444 110.351 154.615 110.746 154.853 111.09 155.158 111.384 155.464 111.677 155.824 111.904 156.241 112.062 156.657 112.221 157.108 112.3 157.593 112.3 158.144 112.3 158.639 112.205 159.079 112.013 159.52 111.821 159.89 111.542 160.189 111.177L159.255 110.315C159.039 110.567 158.8 110.754 158.536 110.876 158.273 110.999 157.985 111.061 157.674 111.061 157.38 111.061 157.111 111.012 156.865 110.917 156.619 110.821 156.407 110.683 156.227 110.504 156.048 110.324 155.908 110.111 155.81 109.866 155.711 109.62 155.661 109.347 155.661 109.048 155.661 108.749 155.711 108.476 155.81 108.231 155.908 107.985 156.048 107.772 156.227 107.593 156.407 107.413 156.619 107.275 156.865 107.179 157.111 107.084 157.38 107.036 157.674 107.036 157.985 107.036 158.273 107.097 158.536 107.22 158.8 107.343 159.039 107.527 159.255 107.772L160.189 106.91C159.89 106.544 159.52 106.268 159.079 106.079 158.639 105.89 158.147 105.796 157.602 105.796ZM113.364 105.796C112.771 105.796 112.278 105.884 111.886 106.061 111.494 106.238 111.2 106.474 111.006 106.771 110.811 107.067 110.714 107.395 110.714 107.754 110.714 108.09 110.781 108.365 110.916 108.581 111.051 108.797 111.226 108.97 111.442 109.102 111.657 109.234 111.895 109.342 112.156 109.426 112.416 109.509 112.677 109.58 112.937 109.637 113.198 109.693 113.436 109.754 113.651 109.816 113.867 109.879 114.041 109.96 114.172 110.059 114.304 110.158 114.37 110.291 114.37 110.459 114.37 110.59 114.329 110.707 114.244 110.809 114.161 110.911 114.03 110.99 113.854 111.047 113.677 111.104 113.445 111.133 113.157 111.133 112.78 111.133 112.407 111.071 112.039 110.948 111.671 110.825 111.352 110.668 111.082 110.477L110.588 111.573C110.869 111.788 111.241 111.963 111.702 112.098 112.163 112.233 112.645 112.3 113.148 112.3 113.747 112.3 114.243 112.21 114.635 112.031 115.028 111.851 115.322 111.614 115.52 111.321 115.718 111.028 115.816 110.704 115.816 110.351 115.816 110.021 115.749 109.749 115.614 109.533 115.48 109.318 115.304 109.144 115.089 109.012 114.873 108.88 114.635 108.776 114.375 108.698 114.114 108.62 113.854 108.551 113.593 108.491 113.333 108.431 113.095 108.371 112.879 108.312 112.663 108.251 112.489 108.172 112.358 108.073 112.226 107.975 112.16 107.844 112.16 107.683 112.16 107.545 112.199 107.424 112.277 107.319 112.355 107.214 112.484 107.128 112.663 107.063 112.843 106.997 113.073 106.964 113.355 106.964 113.637 106.964 113.924 107.004 114.217 107.085 114.511 107.166 114.805 107.29 115.098 107.458L115.547 106.353C115.254 106.167 114.915 106.028 114.532 105.935 114.149 105.843 113.759 105.796 113.364 105.796ZM62.6065 105.796C62.1034 105.796 61.642 105.875 61.2227 106.034 60.8034 106.193 60.438 106.419 60.1266 106.712 59.8152 107.006 59.5743 107.35 59.4035 107.745 59.2326 108.141 59.1475 108.575 59.1475 109.048 59.1475 109.521 59.2326 109.956 59.4035 110.351 59.5743 110.746 59.8138 111.09 60.1224 111.384 60.4309 111.677 60.793 111.904 61.2094 112.062 61.6254 112.221 62.0821 112.3 62.5795 112.3 63.0287 112.3 63.4792 112.232 63.9316 112.094 64.3836 111.956 64.7807 111.758 65.1219 111.501L65.1219 108.949 63.792 108.949 63.792 110.785 63.5 110.921C63.2279 111.014 62.9477 111.061 62.6605 111.061 62.3609 111.061 62.0869 111.012 61.8384 110.917 61.5895 110.821 61.3741 110.682 61.1915 110.499 61.0088 110.316 60.8678 110.102 60.7693 109.857 60.6704 109.611 60.6207 109.342 60.6207 109.048 60.6207 108.749 60.6704 108.476 60.7693 108.231 60.8678 107.985 61.0088 107.772 61.1915 107.593 61.3741 107.413 61.5914 107.275 61.8427 107.179 62.0944 107.084 62.3727 107.036 62.6784 107.036 62.9955 107.036 63.2889 107.094 63.5587 107.211 63.828 107.328 64.0769 107.506 64.3041 107.745L65.2388 106.883C64.9331 106.53 64.5573 106.26 64.111 106.074 63.6647 105.889 63.1635 105.796 62.6065 105.796ZM25.2073 105.796C24.7162 105.796 24.264 105.875 23.8507 106.034 23.4374 106.193 23.0765 106.419 22.7681 106.712 22.4597 107.006 22.2201 107.35 22.0494 107.745 21.8787 108.141 21.7933 108.575 21.7933 109.048 21.7933 109.521 21.8787 109.956 22.0494 110.351 22.2201 110.746 22.4582 111.09 22.7636 111.384 23.0691 111.677 23.4299 111.904 23.8462 112.062 24.2624 112.221 24.7132 112.3 25.1983 112.3 25.7493 112.3 26.2449 112.205 26.6851 112.013 27.1253 111.821 27.4951 111.542 27.7946 111.177L26.8603 110.315C26.6447 110.567 26.4051 110.754 26.1416 110.876 25.878 110.999 25.5906 111.061 25.2791 111.061 24.9856 111.061 24.7162 111.012 24.4706 110.917 24.225 110.821 24.0124 110.683 23.8327 110.504 23.6531 110.324 23.5137 110.111 23.415 109.866 23.3162 109.62 23.2667 109.347 23.2667 109.048 23.2667 108.749 23.3162 108.476 23.415 108.231 23.5137 107.985 23.6531 107.772 23.8327 107.593 24.0124 107.413 24.225 107.275 24.4706 107.179 24.7162 107.084 24.9856 107.036 25.2791 107.036 25.5906 107.036 25.878 107.097 26.1416 107.22 26.4051 107.343 26.6447 107.527 26.8603 107.772L27.7946 106.91C27.4951 106.544 27.1253 106.268 26.6851 106.079 26.2449 105.89 25.7523 105.796 25.2073 105.796ZM109.158 105.454C108.913 105.454 108.706 105.534 108.538 105.692 108.371 105.852 108.287 106.059 108.287 106.317 108.287 106.58 108.369 106.789 108.534 106.941L108.768 107.084 108.376 108.509 109.266 108.509 109.787 107.215C109.859 107.048 109.911 106.913 109.944 106.811 109.977 106.71 109.998 106.621 110.007 106.546 110.016 106.471 110.02 106.395 110.02 106.317 110.02 106.059 109.94 105.852 109.778 105.692 109.616 105.534 109.41 105.454 109.158 105.454ZM149.549 78.4039 154.167 89.5515 144.913 89.5515ZM113.59 77.2766 119.082 77.2766C121.163 77.2766 122.716 77.7205 123.743 78.6079 124.769 79.4957 125.282 80.7442 125.282 82.3528 125.282 83.9339 124.769 85.1687 123.743 86.056 122.716 86.9439 121.163 87.3878 119.082 87.3878L113.59 87.3878ZM146.265 71.784 133.283 100.911 140.19 100.911 142.785 94.6693 156.287 94.6693 158.873 100.911 165.946 100.911 152.922 71.784ZM106.849 71.784 106.849 100.911 113.59 100.911 113.59 92.88 119.457 92.88C122.064 92.88 124.311 92.4573 126.197 91.6111 128.084 90.765 129.54 89.5515 130.567 87.9704 131.593 86.3892 132.106 84.5165 132.106 82.3528 132.106 80.1616 131.593 78.2752 130.567 76.694 129.54 75.1129 128.084 73.8994 126.197 73.0532 124.311 72.207 122.064 71.784 119.457 71.784ZM74.9155 71.784 86.1918 90.5288 86.1918 100.911 92.9325 100.911 92.9325 90.5979 104.25 71.784 97.6343 71.784 89.8369 84.7139 82.0721 71.784ZM14.6456 71.784 14.6456 100.911 21.3031 100.911 21.3031 83.2321 35.825 100.911 41.3591 100.911 41.3591 71.784 34.7015 71.784 34.7366 89.4976 20.2213 71.784ZM62.1981 71.2847C59.9231 71.2847 57.829 71.6524 55.9151 72.3874 54.0008 73.1223 52.3297 74.1696 50.9009 75.5289 49.4721 76.8881 48.3628 78.4829 47.572 80.314 46.7815 82.145 46.3863 84.1559 46.3863 86.3476 46.3863 88.5387 46.7815 90.5501 47.572 92.3807 48.3628 94.2117 49.4655 95.8066 50.8801 97.1658 52.2947 98.525 53.9662 99.5723 55.8943 100.307 57.8219 101.043 59.9094 101.41 62.1564 101.41 64.7083 101.41 67.004 100.966 69.0428 100.079 71.0816 99.1909 72.7944 97.9012 74.1815 96.2089L69.854 92.2146C68.8554 93.3792 67.7461 94.2463 66.5256 94.8151 65.305 95.3835 63.9733 95.6679 62.5308 95.6679 61.1716 95.6679 59.9231 95.446 58.7859 95.0021 57.6486 94.5586 56.6638 93.9202 55.8318 93.0882 54.9993 92.2562 54.3548 91.2713 53.8966 90.1341 53.439 88.9964 53.2104 87.7342 53.2104 86.3476 53.2104 84.9604 53.439 83.6982 53.8966 82.561 54.3548 81.4238 54.9993 80.4389 55.8318 79.6065 56.6638 78.7745 57.6486 78.1365 58.7859 77.6926 59.9231 77.2487 61.1716 77.0267 62.5308 77.0267 63.9733 77.0267 65.305 77.3111 66.5256 77.88 67.7461 78.4484 68.8554 79.3017 69.854 80.4389L74.1815 76.4441C72.7944 74.7522 71.0816 73.4692 69.0428 72.5956 67.004 71.7215 64.7225 71.2847 62.1981 71.2847ZM88.4995 0C137.376 0 176.999 39.6225 176.999 88.4995 176.999 137.376 137.376 176.999 88.4995 176.999 39.6225 176.999 0 137.376 0 88.4995 0 39.6225 39.6225 0 88.4995 0Z" fill="url(#fill5)" fill-rule="evenodd" transform="matrix(1 0 0 1.00001 601.882 416)"/></g></g></g></g></g></svg>